# Blender v2.67 (sub 0) OBJ File: ''
# www.blender.org
mtllib abcd.mtl
o Cube_Cube.001
v 1.377848 1.798485 -2.322952
v 1.377848 1.798485 -62.322952
v 61.377846 1.798485 -62.322952
v 61.377846 1.798485 -2.322952
v 1.377848 61.798485 -2.322952
v 1.377848 61.798485 -62.322952
v 61.377846 61.798485 -62.322952
v 61.377846 61.798485 -2.322952
v 2.770447 3.191084 -3.715552
v 2.770447 3.191084 -60.930351
v 61.377846 3.504010 -60.617428
v 61.377846 3.504010 -4.028478
v 2.770447 60.405884 -3.715552
v 2.770447 60.405884 -60.930351
v 61.377846 60.092960 -60.617428
v 61.377846 60.092960 -4.028478
vt 0.343992 0.357277
vt 0.343992 0.242694
vt 0.458575 0.357277
vt 0.871079 0.823995
vt 0.937679 0.823995
vt 0.871079 0.890595
vt 0.981966 0.728148
vt 0.883036 0.728148
vt 0.883036 0.629218
vt 0.879514 0.428367
vt 0.879514 0.326326
vt 0.981554 0.326326
vt 0.496526 0.081580
vt 0.496526 0.219756
vt 0.358350 0.219756
vt 0.458575 0.242694
vt 0.937679 0.890595
vt 0.981966 0.629218
vt 0.981554 0.428367
vt 0.358350 0.081580
vn -1.000000 0.000000 0.000000
vn 0.000000 0.000000 -1.000000
vn 0.000000 0.000000 1.000000
vn 0.000000 -1.000000 0.000000
vn 0.000000 1.000000 0.000000
vn 1.000000 0.000000 -0.000000
vn -0.005339 0.000000 0.999986
vn -0.005339 0.000000 -0.999986
vn -0.005339 0.999986 0.000000
vn -0.005339 -0.999986 0.000000
g Cube_Cube.001_room_design
usemtl room_design
s off
f 5/1/1 6/2/1 1/3/1
f 6/4/2 7/5/2 2/6/2
f 8/7/3 5/8/3 1/9/3
f 1/10/4 2/11/4 3/12/4
f 8/13/5 7/14/5 6/15/5
f 9/3/6 10/16/6 14/2/6
f 10/6/7 11/17/7 14/4/7
f 12/18/8 9/9/8 16/7/8
f 12/19/9 11/12/9 9/10/9
f 13/20/10 14/15/10 16/13/10
f 7/14/6 8/13/6 16/13/6
f 8/7/6 4/18/6 12/18/6
f 3/17/6 7/5/6 15/5/6
f 4/19/6 3/12/6 11/12/6
f 6/2/1 2/16/1 1/3/1
f 7/5/2 3/17/2 2/6/2
f 4/18/3 8/7/3 1/9/3
f 4/19/4 1/10/4 3/12/4
f 5/20/5 8/13/5 6/15/5
f 13/1/6 9/3/6 14/2/6
f 11/17/7 15/5/7 14/4/7
f 9/9/8 13/8/8 16/7/8
f 11/12/9 10/11/9 9/10/9
f 14/15/10 15/14/10 16/13/10
f 15/14/6 7/14/6 16/13/6
f 16/7/6 8/7/6 12/18/6
f 11/17/6 3/17/6 15/5/6
f 12/19/6 4/19/6 11/12/6
