# Blender v2.67 (sub 0) OBJ File: ''
# www.blender.org
mtllib t2.mtl
o Text.002
v 28.860949 57.947861 -14.824304
v 28.860949 57.947861 -15.856584
v 28.860949 47.684902 -20.240034
v 28.860949 47.684902 -18.743977
v 28.860949 50.691978 -17.457367
v 28.860949 50.691978 -13.118798
v 28.860949 47.684902 -11.757385
v 28.860949 47.684902 -10.261327
v 28.860949 55.703773 -15.362885
v 28.860949 52.008511 -13.717221
v 28.860949 52.008511 -16.888865
vn -1.000000 -0.000000 0.000000
g Text.002_Text.002_None
usemtl None
s off
f 3//1 1//1 2//1
f 3//1 9//1 1//1
f 9//1 8//1 1//1
f 3//1 11//1 9//1
f 10//1 8//1 9//1
f 3//1 5//1 11//1
f 5//1 10//1 11//1
f 5//1 6//1 10//1
f 6//1 8//1 10//1
f 3//1 4//1 5//1
f 7//1 8//1 6//1
o Text.001
v 25.286663 5.451898 20.040342
v 25.286663 5.451898 18.586018
v 25.286663 5.694163 18.787182
v 25.286663 5.918047 18.967606
v 25.286663 6.125603 19.127907
v 25.286663 6.318879 19.268707
v 25.286663 6.499928 19.390623
v 25.286663 6.670800 19.494274
v 25.286663 6.833546 19.580280
v 25.286663 6.990217 19.649261
v 25.286663 7.142863 19.701836
v 25.286663 7.293536 19.738623
v 25.286663 7.444287 19.760241
v 25.286663 7.597165 19.767307
v 25.286663 7.768005 19.757591
v 25.286663 7.928861 19.729052
v 25.286663 8.078806 19.682594
v 25.286663 8.216909 19.619131
v 25.286663 8.342243 19.539570
v 25.286663 8.453879 19.444820
v 25.286663 8.550888 19.335794
v 25.286663 8.632342 19.213398
v 25.286663 8.697311 19.078541
v 25.286663 8.744868 18.932135
v 25.286663 8.774083 18.775087
v 25.286663 8.784027 18.608307
v 25.286663 8.781584 18.532129
v 25.286663 8.774225 18.456724
v 25.286663 8.761913 18.381939
v 25.286663 8.744610 18.307619
v 25.286663 8.722277 18.233606
v 25.286663 8.694874 18.159750
v 25.286663 8.662363 18.085894
v 25.286663 8.624706 18.011883
v 25.286663 8.581864 17.937563
v 25.286663 8.533798 17.862778
v 25.286663 8.480470 17.787373
v 25.286663 8.421840 17.711195
v 25.286663 7.736468 17.711195
v 25.286663 7.828492 17.787245
v 25.286663 7.909875 17.862209
v 25.286663 7.981119 17.936169
v 25.286663 8.042728 18.009201
v 25.286663 8.095206 18.081381
v 25.286663 8.139054 18.152786
v 25.286663 8.174776 18.223495
v 25.286663 8.202876 18.293585
v 25.286663 8.223855 18.363134
v 25.286663 8.238217 18.432219
v 25.286663 8.246467 18.500916
v 25.286663 8.249104 18.569302
v 25.286663 8.243051 18.660555
v 25.286663 8.225293 18.747223
v 25.286663 8.196429 18.828667
v 25.286663 8.157060 18.904249
v 25.286663 8.107784 18.973330
v 25.286663 8.049203 19.035271
v 25.286663 7.981915 19.089434
v 25.286663 7.906521 19.135181
v 25.286663 7.823619 19.171875
v 25.286663 7.733810 19.198875
v 25.286663 7.637695 19.215542
v 25.286663 7.535872 19.221241
v 25.286663 7.458997 19.219383
v 25.286663 7.386611 19.213810
v 25.286663 7.317863 19.204523
v 25.286663 7.251900 19.191523
v 25.286663 7.187872 19.174807
v 25.286663 7.124928 19.154375
v 25.286663 7.062216 19.130230
v 25.286663 6.998884 19.102369
v 25.286663 6.934083 19.070793
v 25.286663 6.866959 19.035503
v 25.286663 6.796663 18.996498
v 25.286663 6.722342 18.953779
v 25.286663 6.581717 18.867884
v 25.286663 6.436409 18.772762
v 25.286663 6.287542 18.669861
v 25.286663 6.136237 18.560635
v 25.286663 5.983616 18.446531
v 25.286663 5.830802 18.329004
v 25.286663 5.678917 18.209503
v 25.286663 5.529082 18.089481
v 25.286663 5.382421 17.970387
v 25.286663 5.240054 17.853672
v 25.286663 5.103105 17.740788
v 25.286663 4.972695 17.633184
v 25.286663 4.933691 17.633184
v 25.286663 4.933691 20.040342
v 25.286663 8.733878 14.507224
v 25.286663 4.933691 14.507224
v 25.286663 4.933691 15.053292
v 25.286663 6.583039 15.053292
v 25.286663 6.583039 15.281750
v 25.286663 6.580833 15.350543
v 25.286663 6.572824 15.418369
v 25.286663 6.556920 15.486351
v 25.286663 6.531033 15.555609
v 25.286663 6.493073 15.627266
v 25.286663 6.440950 15.702444
v 25.286663 6.372575 15.782267
v 25.286663 6.285859 15.867854
v 25.286663 6.178711 15.960329
v 25.286663 6.049044 16.060814
v 25.286663 5.894765 16.170431
v 25.286663 5.713788 16.290304
v 25.286663 4.933691 16.791794
v 25.286663 4.933691 17.443733
v 25.286663 5.019575 17.381607
v 25.286663 5.096985 17.325636
v 25.286663 5.167197 17.275003
v 25.286663 5.231490 17.228897
v 25.286663 5.291138 17.186506
v 25.286663 5.347421 17.147018
v 25.286663 5.401613 17.109619
v 25.286663 5.454994 17.073496
v 25.286663 5.508838 17.037838
v 25.286663 5.564424 17.001833
v 25.286663 5.623028 16.964666
v 25.286663 5.685927 16.925526
v 25.286663 5.801781 16.854591
v 25.286663 5.912527 16.786171
v 25.286663 6.018165 16.719532
v 25.286663 6.118695 16.653936
v 25.286663 6.214118 16.588652
v 25.286663 6.304433 16.522940
v 25.286663 6.389640 16.456068
v 25.286663 6.469739 16.387300
v 25.286663 6.544731 16.315901
v 25.286663 6.614614 16.241135
v 25.286663 6.679390 16.162268
v 25.286663 6.739058 16.078564
v 25.286663 6.782907 16.176510
v 25.286663 6.833527 16.266853
v 25.286663 6.890725 16.349421
v 25.286663 6.954308 16.424034
v 25.286663 7.024081 16.490522
v 25.286663 7.099854 16.548710
v 25.286663 7.181429 16.598425
v 25.286663 7.268617 16.639490
v 25.286663 7.361221 16.671732
v 25.286663 7.459049 16.694979
v 25.286663 7.561908 16.709055
v 25.286663 7.669603 16.713785
v 25.286663 7.828666 16.703911
v 25.286663 7.976740 16.674728
v 25.286663 8.113283 16.626894
v 25.286663 8.237753 16.561068
v 25.286663 8.349608 16.477905
v 25.286663 8.448307 16.378065
v 25.286663 8.533308 16.262203
v 25.286663 8.604069 16.130981
v 25.286663 8.660048 15.985056
v 25.286663 8.700704 15.825083
v 25.286663 8.725494 15.651721
v 25.286663 8.733878 15.465630
v 25.286663 8.265821 15.053292
v 25.286663 8.265821 15.404336
v 25.286663 8.261338 15.530122
v 25.286663 8.248072 15.643060
v 25.286663 8.226293 15.743539
v 25.286663 8.196272 15.831944
v 25.286663 8.158279 15.908665
v 25.286663 8.112587 15.974086
v 25.286663 8.059464 16.028595
v 25.286663 7.999183 16.072578
v 25.286663 7.932015 16.106424
v 25.286663 7.858230 16.130518
v 25.286663 7.778098 16.145248
v 25.286663 7.691891 16.151001
v 25.286663 7.613001 16.148653
v 25.286663 7.535795 16.138256
v 25.286663 7.461258 16.118961
v 25.286663 7.390378 16.089914
v 25.286663 7.324141 16.050264
v 25.286663 7.263535 15.999160
v 25.286663 7.209545 15.935751
v 25.286663 7.163159 15.859186
v 25.286663 7.125363 15.768613
v 25.286663 7.097145 15.663181
v 25.286663 7.079490 15.542040
v 25.286663 7.073386 15.404336
v 25.286663 7.073386 15.053292
g Text.001_Text.001_None
usemtl None
s off
f 38//1 36//1 37//1
f 39//1 36//1 38//1
f 40//1 36//1 39//1
f 40//1 35//1 36//1
f 41//1 35//1 40//1
f 41//1 34//1 35//1
f 42//1 34//1 41//1
f 43//1 34//1 42//1
f 43//1 33//1 34//1
f 44//1 33//1 43//1
f 45//1 33//1 44//1
f 45//1 32//1 33//1
f 46//1 32//1 45//1
f 47//1 32//1 46//1
f 47//1 31//1 32//1
f 48//1 31//1 47//1
f 49//1 31//1 48//1
f 49//1 30//1 31//1
f 50//1 51//1 49//1
f 51//1 52//1 49//1
f 52//1 53//1 49//1
f 53//1 54//1 49//1
f 54//1 55//1 49//1
f 55//1 56//1 49//1
f 56//1 57//1 49//1
f 57//1 58//1 49//1
f 58//1 59//1 49//1
f 59//1 60//1 49//1
f 60//1 61//1 49//1
f 61//1 30//1 49//1
f 61//1 62//1 30//1
f 62//1 29//1 30//1
f 63//1 29//1 62//1
f 64//1 29//1 63//1
f 65//1 29//1 64//1
f 65//1 28//1 29//1
f 66//1 28//1 65//1
f 67//1 28//1 66//1
f 68//1 28//1 67//1
f 68//1 27//1 28//1
f 69//1 27//1 68//1
f 70//1 27//1 69//1
f 70//1 26//1 27//1
f 71//1 26//1 70//1
f 72//1 26//1 71//1
f 72//1 25//1 26//1
f 73//1 25//1 72//1
f 74//1 25//1 73//1
f 74//1 24//1 25//1
f 75//1 24//1 74//1
f 76//1 24//1 75//1
f 76//1 23//1 24//1
f 77//1 23//1 76//1
f 78//1 23//1 77//1
f 78//1 22//1 23//1
f 79//1 22//1 78//1
f 80//1 22//1 79//1
f 80//1 21//1 22//1
f 81//1 21//1 80//1
f 82//1 21//1 81//1
f 83//1 21//1 82//1
f 83//1 20//1 21//1
f 84//1 20//1 83//1
f 85//1 20//1 84//1
f 85//1 19//1 20//1
f 86//1 19//1 85//1
f 87//1 19//1 86//1
f 87//1 18//1 19//1
f 88//1 18//1 87//1
f 88//1 17//1 18//1
f 89//1 17//1 88//1
f 89//1 16//1 17//1
f 90//1 16//1 89//1
f 91//1 16//1 90//1
f 91//1 15//1 16//1
f 92//1 15//1 91//1
f 92//1 14//1 15//1
f 93//1 14//1 92//1
f 93//1 13//1 14//1
f 94//1 13//1 93//1
f 95//1 13//1 94//1
f 95//1 12//1 13//1
f 95//1 100//1 12//1
f 96//1 100//1 95//1
f 97//1 100//1 96//1
f 98//1 100//1 97//1
f 99//1 100//1 98//1
f 102//1 168//1 101//1
f 168//1 167//1 101//1
f 168//1 166//1 167//1
f 168//1 165//1 166//1
f 168//1 164//1 165//1
f 168//1 163//1 164//1
f 168//1 162//1 163//1
f 168//1 161//1 162//1
f 168//1 160//1 161//1
f 168//1 169//1 160//1
f 169//1 159//1 160//1
f 102//1 194//1 168//1
f 170//1 159//1 169//1
f 171//1 159//1 170//1
f 172//1 159//1 171//1
f 172//1 158//1 159//1
f 173//1 158//1 172//1
f 174//1 158//1 173//1
f 175//1 158//1 174//1
f 175//1 157//1 158//1
f 176//1 157//1 175//1
f 177//1 157//1 176//1
f 178//1 157//1 177//1
f 178//1 156//1 157//1
f 179//1 156//1 178//1
f 180//1 156//1 179//1
f 180//1 155//1 156//1
f 181//1 155//1 180//1
f 182//1 155//1 181//1
f 182//1 154//1 155//1
f 183//1 154//1 182//1
f 183//1 153//1 154//1
f 184//1 153//1 183//1
f 185//1 153//1 184//1
f 185//1 152//1 153//1
f 186//1 152//1 185//1
f 186//1 151//1 152//1
f 187//1 151//1 186//1
f 187//1 150//1 151//1
f 188//1 150//1 187//1
f 189//1 150//1 188//1
f 189//1 149//1 150//1
f 190//1 149//1 189//1
f 191//1 149//1 190//1
f 191//1 148//1 149//1
f 192//1 148//1 191//1
f 193//1 148//1 192//1
f 102//1 104//1 194//1
f 104//1 193//1 194//1
f 104//1 148//1 193//1
f 104//1 147//1 148//1
f 104//1 146//1 147//1
f 104//1 145//1 146//1
f 104//1 144//1 145//1
f 104//1 143//1 144//1
f 104//1 142//1 143//1
f 104//1 141//1 142//1
f 104//1 105//1 141//1
f 105//1 106//1 141//1
f 106//1 140//1 141//1
f 102//1 103//1 104//1
f 107//1 140//1 106//1
f 108//1 140//1 107//1
f 109//1 140//1 108//1
f 109//1 139//1 140//1
f 110//1 139//1 109//1
f 111//1 139//1 110//1
f 111//1 138//1 139//1
f 112//1 138//1 111//1
f 112//1 137//1 138//1
f 113//1 137//1 112//1
f 113//1 136//1 137//1
f 114//1 136//1 113//1
f 114//1 135//1 136//1
f 115//1 135//1 114//1
f 115//1 134//1 135//1
f 116//1 134//1 115//1
f 116//1 133//1 134//1
f 116//1 132//1 133//1
f 117//1 132//1 116//1
f 117//1 131//1 132//1
f 118//1 131//1 117//1
f 118//1 130//1 131//1
f 118//1 129//1 130//1
f 118//1 128//1 129//1
f 118//1 127//1 128//1
f 118//1 126//1 127//1
f 118//1 125//1 126//1
f 118//1 124//1 125//1
f 118//1 123//1 124//1
f 118//1 122//1 123//1
f 118//1 121//1 122//1
f 118//1 120//1 121//1
f 118//1 119//1 120//1
o Text
v 28.235592 37.541824 18.186829
v 28.235592 37.541824 17.541338
v 28.235592 33.049736 17.541338
v 28.235592 33.049736 18.186829
v 28.235592 37.541824 12.739676
v 28.235592 33.049736 12.739676
v 28.235592 33.049736 13.385166
v 28.235592 34.999382 13.385166
v 28.235592 34.999382 13.655218
v 28.235592 34.996777 13.736538
v 28.235592 34.987309 13.816713
v 28.235592 34.968506 13.897072
v 28.235592 34.937908 13.978940
v 28.235592 34.893036 14.063643
v 28.235592 34.831421 14.152510
v 28.235592 34.750599 14.246865
v 28.235592 34.648094 14.348036
v 28.235592 34.521439 14.457348
v 28.235592 34.368160 14.576129
v 28.235592 34.185795 14.705705
v 28.235592 33.971867 14.847401
v 28.235592 33.049736 15.440199
v 28.235592 33.049736 16.210836
v 28.235592 33.151257 16.137400
v 28.235592 33.242760 16.071236
v 28.235592 33.325756 16.011385
v 28.235592 33.401756 15.956884
v 28.235592 33.472263 15.906775
v 28.235592 33.538795 15.860097
v 28.235592 33.602856 15.815889
v 28.235592 33.665955 15.773190
v 28.235592 33.729603 15.731040
v 28.235592 33.795307 15.688478
v 28.235592 33.864582 15.644545
v 28.235592 33.938934 15.598278
v 28.235592 34.075878 15.514428
v 28.235592 34.206791 15.433551
v 28.235592 34.331661 15.354778
v 28.235592 34.450497 15.277240
v 28.235592 34.563290 15.200068
v 28.235592 34.670052 15.122394
v 28.235592 34.770771 15.043345
v 28.235592 34.865456 14.962057
v 28.235592 34.954098 14.877658
v 28.235592 35.036705 14.789280
v 28.235592 35.113277 14.696054
v 28.235592 35.183807 14.597109
v 28.235592 35.235641 14.712890
v 28.235592 35.295475 14.819682
v 28.235592 35.363087 14.917281
v 28.235592 35.438248 15.005481
v 28.235592 35.520725 15.084074
v 28.235592 35.610294 15.152856
v 28.235592 35.706722 15.211621
v 28.235592 35.809784 15.260163
v 28.235592 35.919247 15.298277
v 28.235592 36.034889 15.325755
v 28.235592 36.156475 15.342394
v 28.235592 36.283779 15.347985
v 28.235592 36.471802 15.336314
v 28.235592 36.646835 15.301818
v 28.235592 36.808239 15.245275
v 28.235592 36.955372 15.167462
v 28.235592 37.087593 15.069159
v 28.235592 37.204262 14.951140
v 28.235592 37.304737 14.814185
v 28.235592 37.388382 14.659072
v 28.235592 37.454552 14.486576
v 28.235592 37.502613 14.297477
v 28.235592 37.531918 14.092551
v 28.235592 37.541824 13.872578
v 28.235592 36.988548 13.385166
v 28.235592 36.988548 13.800125
v 28.235592 36.983250 13.948812
v 28.235592 36.967567 14.082314
v 28.235592 36.941822 14.201086
v 28.235592 36.906338 14.305589
v 28.235592 36.861427 14.396276
v 28.235592 36.807415 14.473609
v 28.235592 36.744621 14.538042
v 28.235592 36.673367 14.590034
v 28.235592 36.593967 14.630042
v 28.235592 36.506748 14.658523
v 28.235592 36.412025 14.675935
v 28.235592 36.310123 14.682734
v 28.235592 36.216869 14.679960
v 28.235592 36.125607 14.667671
v 28.235592 36.037498 14.644861
v 28.235592 35.953712 14.610525
v 28.235592 35.875416 14.563657
v 28.235592 35.803776 14.503248
v 28.235592 35.739956 14.428295
v 28.235592 35.685123 14.337790
v 28.235592 35.640446 14.230726
v 28.235592 35.607090 14.106098
v 28.235592 35.586224 13.962900
v 28.235592 35.579006 13.800125
v 28.235592 35.579006 13.385166
g Text_Text_None
usemtl None
s off
f 197//1 195//1 196//1
f 197//1 198//1 195//1
f 200//1 266//1 199//1
f 266//1 265//1 199//1
f 266//1 264//1 265//1
f 266//1 263//1 264//1
f 266//1 262//1 263//1
f 266//1 261//1 262//1
f 266//1 260//1 261//1
f 266//1 259//1 260//1
f 266//1 258//1 259//1
f 266//1 267//1 258//1
f 267//1 257//1 258//1
f 200//1 292//1 266//1
f 268//1 257//1 267//1
f 269//1 257//1 268//1
f 270//1 257//1 269//1
f 270//1 256//1 257//1
f 271//1 256//1 270//1
f 272//1 256//1 271//1
f 273//1 256//1 272//1
f 273//1 255//1 256//1
f 274//1 255//1 273//1
f 275//1 255//1 274//1
f 276//1 255//1 275//1
f 276//1 254//1 255//1
f 277//1 254//1 276//1
f 278//1 254//1 277//1
f 278//1 253//1 254//1
f 279//1 253//1 278//1
f 280//1 253//1 279//1
f 280//1 252//1 253//1
f 281//1 252//1 280//1
f 281//1 251//1 252//1
f 282//1 251//1 281//1
f 283//1 251//1 282//1
f 283//1 250//1 251//1
f 284//1 250//1 283//1
f 284//1 249//1 250//1
f 285//1 249//1 284//1
f 285//1 248//1 249//1
f 286//1 248//1 285//1
f 287//1 248//1 286//1
f 287//1 247//1 248//1
f 288//1 247//1 287//1
f 289//1 247//1 288//1
f 289//1 246//1 247//1
f 290//1 246//1 289//1
f 291//1 246//1 290//1
f 200//1 202//1 292//1
f 202//1 291//1 292//1
f 202//1 246//1 291//1
f 202//1 245//1 246//1
f 202//1 244//1 245//1
f 202//1 243//1 244//1
f 202//1 242//1 243//1
f 202//1 241//1 242//1
f 202//1 240//1 241//1
f 202//1 239//1 240//1
f 202//1 203//1 239//1
f 203//1 204//1 239//1
f 204//1 238//1 239//1
f 200//1 201//1 202//1
f 205//1 238//1 204//1
f 206//1 238//1 205//1
f 207//1 238//1 206//1
f 207//1 237//1 238//1
f 208//1 237//1 207//1
f 209//1 237//1 208//1
f 209//1 236//1 237//1
f 210//1 236//1 209//1
f 210//1 235//1 236//1
f 211//1 235//1 210//1
f 211//1 234//1 235//1
f 212//1 234//1 211//1
f 212//1 233//1 234//1
f 213//1 233//1 212//1
f 213//1 232//1 233//1
f 214//1 232//1 213//1
f 214//1 231//1 232//1
f 214//1 230//1 231//1
f 215//1 230//1 214//1
f 215//1 229//1 230//1
f 216//1 229//1 215//1
f 216//1 228//1 229//1
f 216//1 227//1 228//1
f 216//1 226//1 227//1
f 216//1 225//1 226//1
f 216//1 224//1 225//1
f 216//1 223//1 224//1
f 216//1 222//1 223//1
f 216//1 221//1 222//1
f 216//1 220//1 221//1
f 216//1 219//1 220//1
f 216//1 218//1 219//1
f 216//1 217//1 218//1
