# Blender v2.67 (sub 0) OBJ File: ''
# www.blender.org
mtllib t.mtl
o Text
v -26.346695 44.839874 -8.276813
v -26.346693 47.077023 -6.534693
v -26.346693 47.077023 -5.411360
v -26.346693 44.021175 -7.819862
v -26.346693 40.584538 -7.819862
v -26.346693 40.584538 -8.752801
v -26.346695 44.011654 -8.752801
v -26.346695 47.077023 -11.161301
v -26.346695 47.077023 -10.037970
v -26.346691 47.077023 -0.394438
v -26.346691 40.584538 -0.394438
v -26.346691 40.584538 -1.327376
v -26.346691 43.402390 -1.327376
v -26.346691 43.402390 -1.717688
v -26.346691 43.398621 -1.835219
v -26.346691 43.384937 -1.951098
v -26.346691 43.357765 -2.067241
v -26.346691 43.313538 -2.185567
v -26.346691 43.248684 -2.307992
v -26.346691 43.159637 -2.436431
v -26.346691 43.042820 -2.572803
v -26.346691 42.894669 -2.719026
v -26.346693 42.711613 -2.877017
v -26.346693 42.490078 -3.048691
v -26.346693 42.226501 -3.235968
v -26.346693 41.917305 -3.440767
v -26.346693 40.584538 -4.297545
v -26.346693 40.584538 -5.411360
v -26.346693 40.731266 -5.305220
v -26.346693 40.863522 -5.209593
v -26.346693 40.983475 -5.123089
v -26.346693 41.093315 -5.044319
v -26.346693 41.195225 -4.971896
v -26.346693 41.291382 -4.904431
v -26.346693 41.383968 -4.840537
v -26.346693 41.475166 -4.778824
v -26.346693 41.567158 -4.717904
v -26.346693 41.662125 -4.656388
v -26.346693 41.762245 -4.592889
v -26.346693 41.869705 -4.526020
v -26.346693 42.067638 -4.404829
v -26.346693 42.256844 -4.287938
v -26.346693 42.437325 -4.174086
v -26.346693 42.609077 -4.062020
v -26.346693 42.772102 -3.950483
v -26.346693 42.926403 -3.838217
v -26.346693 43.071976 -3.723967
v -26.346693 43.208820 -3.606479
v -26.346693 43.336941 -3.484497
v -26.346693 43.456337 -3.356763
v -26.346693 43.567001 -3.222021
v -26.346693 43.668945 -3.079014
v -26.346693 43.743858 -3.246354
v -26.346693 43.830338 -3.400704
v -26.346693 43.928059 -3.541766
v -26.346693 44.036690 -3.669241
v -26.346693 44.155895 -3.782834
v -26.346693 44.285351 -3.882246
v -26.346693 44.424721 -3.967181
v -26.346693 44.573673 -4.037339
v -26.346693 44.731888 -4.092424
v -26.346693 44.899021 -4.132140
v -26.346693 45.074753 -4.156187
v -26.346693 45.258747 -4.164269
v -26.346693 45.530499 -4.147401
v -26.346693 45.783478 -4.097543
v -26.346693 46.016758 -4.015820
v -26.346693 46.229412 -3.903357
v -26.346693 46.420513 -3.761276
v -26.346693 46.589134 -3.590703
v -26.346693 46.734356 -3.392761
v -26.346693 46.855247 -3.168572
v -26.346693 46.950886 -2.919262
v -26.346693 47.020344 -2.645955
v -26.346693 47.062698 -2.349774
v -26.346693 47.077023 -2.031840
v -26.346691 46.277363 -1.327376
v -26.346691 46.277363 -1.927121
v -26.346693 46.269703 -2.142023
v -26.346693 46.247040 -2.334974
v -26.346693 46.209831 -2.506637
v -26.346693 46.158543 -2.657676
v -26.346693 46.093632 -2.788748
v -26.346693 46.015568 -2.900517
v -26.346693 45.924809 -2.993642
v -26.346693 45.821823 -3.068787
v -26.346693 45.707069 -3.126612
v -26.346693 45.581009 -3.167775
v -26.346693 45.444107 -3.192941
v -26.346693 45.296825 -3.202772
v -26.346693 45.162045 -3.198761
v -26.346693 45.030140 -3.180998
v -26.346693 44.902798 -3.148031
v -26.346693 44.781700 -3.098404
v -26.346693 44.668537 -3.030663
v -26.346693 44.564991 -2.943355
v -26.346693 44.472752 -2.835023
v -26.346693 44.393505 -2.704214
v -26.346693 44.328934 -2.549473
v -26.346691 44.280720 -2.369346
v -26.346691 44.250557 -2.162380
v -26.346691 44.240131 -1.927121
v -26.346691 44.240131 -1.327376
v -26.346689 43.830780 7.744966
v -26.346689 43.395256 7.717325
v -26.346689 42.972458 7.635707
v -26.346689 42.567181 7.502061
v -26.346689 42.184212 7.318336
v -26.346689 41.828350 7.086485
v -26.346689 41.504387 6.808457
v -26.346689 41.217113 6.486202
v -26.346689 40.971321 6.121669
v -26.346689 40.771809 5.716808
v -26.346689 40.623367 5.273572
v -26.346689 40.530785 4.793909
v -26.346689 40.498859 4.279770
v -26.346689 40.530968 3.748694
v -26.346689 40.624027 3.255996
v -26.346689 40.773148 2.803161
v -26.346691 40.973438 2.391678
v -26.346691 41.220005 2.023035
v -26.346691 41.507954 1.698718
v -26.346691 41.832397 1.420216
v -26.346691 42.188442 1.189014
v -26.346691 42.571194 1.006601
v -26.346691 42.975765 0.874464
v -26.346691 43.397255 0.794092
v -26.346691 43.830780 0.766972
v -26.346691 44.276302 0.794810
v -26.346691 44.705631 0.877022
v -26.346691 45.114460 1.011660
v -26.346691 45.498505 1.196772
v -26.346691 45.853455 1.430409
v -26.346691 46.175022 1.710621
v -26.346691 46.458908 2.035457
v -26.346691 46.700817 2.402965
v -26.346691 46.896446 2.811196
v -26.346691 47.041500 3.258200
v -26.346691 47.131683 3.742028
v -26.346689 47.162701 4.260729
v -26.346689 47.131504 4.771244
v -26.346689 47.040840 5.249331
v -26.346689 46.895107 5.692711
v -26.346689 46.698700 6.099104
v -26.346689 46.456017 6.466226
v -26.346689 46.171455 6.791800
v -26.346689 45.849407 7.073541
v -26.346689 45.494270 7.309171
v -26.346689 45.110447 7.496409
v -26.346689 44.702324 7.632975
v -26.346689 44.274303 7.716588
v -26.346689 43.830780 6.783470
v -26.346689 44.179451 6.761467
v -26.346689 44.509945 6.697088
v -26.346689 44.819942 6.592777
v -26.346689 45.107136 6.450983
v -26.346689 45.369205 6.274151
v -26.346689 45.603836 6.064727
v -26.346689 45.808723 5.825157
v -26.346689 45.981544 5.557887
v -26.346689 46.119987 5.265363
v -26.346689 46.221741 4.950032
v -26.346689 46.284489 4.614338
v -26.346689 46.305920 4.260729
v -26.346689 46.284489 3.904933
v -26.346691 46.221741 3.567416
v -26.346691 46.119987 3.250592
v -26.346691 45.981544 2.956874
v -26.346691 45.808723 2.688673
v -26.346691 45.603840 2.448404
v -26.346691 45.369205 2.238478
v -26.346691 45.107136 2.061311
v -26.346691 44.819942 1.919312
v -26.346691 44.509945 1.814897
v -26.346691 44.179455 1.750479
v -26.346691 43.830780 1.728469
v -26.346691 43.484108 1.750479
v -26.346691 43.154919 1.814897
v -26.346691 42.845631 1.919312
v -26.346691 42.558655 2.061311
v -26.346691 42.296406 2.238478
v -26.346691 42.061291 2.448404
v -26.346689 41.855732 2.688673
v -26.346689 41.682133 2.956874
v -26.346689 41.542912 3.250592
v -26.346689 41.440479 3.567416
v -26.346689 41.377251 3.904933
v -26.346689 41.355640 4.260729
v -26.346689 41.377251 4.614338
v -26.346689 41.440479 4.950032
v -26.346689 41.542912 5.265363
v -26.346689 41.682133 5.557887
v -26.346689 41.855732 5.825157
v -26.346689 42.061291 6.064727
v -26.346689 42.296406 6.274151
v -26.346689 42.558655 6.450983
v -26.346689 42.845631 6.592777
v -26.346689 43.154919 6.697088
v -26.346689 43.484108 6.761467
v -26.346689 47.077023 8.858780
v -26.346687 47.077023 9.725079
v -26.346687 44.411488 11.886067
v -26.346687 47.077023 14.037537
v -26.346687 47.077023 14.913356
v -26.346685 40.584538 14.913356
v -26.346685 40.584538 13.980417
v -26.346687 45.639538 13.980417
v -26.346687 45.639538 13.961378
v -26.346687 43.126316 11.962226
v -26.346687 43.126316 11.809909
v -26.346687 45.639538 9.810757
v -26.346687 45.639538 9.791718
v -26.346687 40.584538 9.791718
v -26.346687 40.584538 8.858780
v -26.346685 47.077023 15.970050
v -26.346685 47.077023 19.654202
v -26.346684 40.584538 19.654202
v -26.346685 40.584538 15.884371
v -26.346685 41.422279 15.884371
v -26.346685 41.422279 18.721264
v -26.346685 43.440468 18.721264
v -26.346685 43.440468 16.065247
v -26.346685 44.278210 16.065247
v -26.346685 44.278210 18.721264
v -26.346685 46.239285 18.721264
v -26.346685 46.239285 15.970050
v -26.346684 47.077023 21.053608
v -26.346684 47.077023 21.919909
v -26.346684 44.411488 24.080896
v -26.346684 47.077023 26.232365
v -26.346682 47.077023 27.108183
v -26.346682 40.584538 27.108183
v -26.346682 40.584538 26.175245
v -26.346682 45.639538 26.175245
v -26.346682 45.639538 26.156206
v -26.346684 43.126316 24.157055
v -26.346684 43.126316 24.004738
v -26.346684 45.639538 22.005585
v -26.346684 45.639538 21.986546
v -26.346684 40.584538 21.986546
v -26.346684 40.584538 21.053608
vn 1.000000 0.000000 0.000000
vn 1.000000 0.000001 -0.000002
vn 1.000000 0.000000 -0.000002
vn 1.000000 0.000001 -0.000000
vn 1.000000 0.000001 -0.000001
vn 1.000000 0.000002 -0.000000
vn 1.000000 0.000013 -0.000000
vn 1.000000 -0.000695 0.000016
vn 1.000000 0.000035 -0.000001
vn 1.000000 -0.000001 -0.000001
vn 1.000000 -0.000006 -0.000001
vn 1.000000 -0.000011 -0.000001
vn 1.000000 -0.000002 -0.000001
vn 1.000000 -0.000003 -0.000001
vn 1.000000 -0.000004 -0.000002
vn 1.000000 0.000035 -0.000000
vn 1.000000 0.000018 -0.000001
vn 1.000000 0.000014 -0.000002
vn 1.000000 0.000006 -0.000001
vn 1.000000 0.000004 -0.000001
vn 1.000000 0.000003 -0.000002
vn 1.000000 0.000002 -0.000002
vn 1.000000 -0.000010 -0.000001
vn 1.000000 -0.000030 -0.000002
vn 1.000000 0.000010 -0.000002
vn 1.000000 -0.000005 -0.000001
vn 1.000000 0.000003 -0.000001
vn 1.000000 -0.000001 -0.000000
vn 1.000000 0.000045 -0.000003
vn 1.000000 0.000084 -0.000005
vn 1.000000 -0.000035 0.000001
vn 1.000000 0.000007 -0.000002
vn 1.000000 -0.000004 -0.000001
vn 1.000000 -0.000007 -0.000000
vn 1.000000 0.000008 -0.000001
vn 1.000000 -0.000002 -0.000002
vn 1.000000 0.000002 0.000001
vn 1.000000 0.000000 -0.000001
vn 1.000000 0.000001 0.000006
g Text_Text_None
usemtl None
s off
f 4//1 2//1 3//1
f 4//2 1//2 2//2
f 1//1 8//1 9//1
f 1//1 7//1 8//1
f 4//2 7//2 1//2
f 5//3 7//3 4//3
f 5//4 6//4 7//4
f 11//1 77//1 10//1
f 77//5 76//5 10//5
f 77//6 75//6 76//6
f 77//6 74//6 75//6
f 77//6 73//6 74//6
f 77//5 72//5 73//5
f 77//5 71//5 72//5
f 77//5 70//5 71//5
f 77//5 69//5 70//5
f 77//7 78//7 69//7
f 78//5 68//5 69//5
f 11//1 103//1 77//1
f 79//8 68//8 78//8
f 80//1 68//1 79//1
f 81//1 68//1 80//1
f 81//1 67//1 68//1
f 82//1 67//1 81//1
f 83//1 67//1 82//1
f 84//1 67//1 83//1
f 84//1 66//1 67//1
f 85//1 66//1 84//1
f 86//1 66//1 85//1
f 87//1 66//1 86//1
f 87//1 65//1 66//1
f 88//1 65//1 87//1
f 89//1 65//1 88//1
f 89//1 64//1 65//1
f 90//1 64//1 89//1
f 91//1 64//1 90//1
f 91//1 63//1 64//1
f 92//1 63//1 91//1
f 92//1 62//1 63//1
f 93//1 62//1 92//1
f 94//1 62//1 93//1
f 94//1 61//1 62//1
f 95//1 61//1 94//1
f 95//1 60//1 61//1
f 96//1 60//1 95//1
f 96//1 59//1 60//1
f 97//1 59//1 96//1
f 98//1 59//1 97//1
f 98//1 58//1 59//1
f 99//1 58//1 98//1
f 100//9 58//9 99//9
f 100//10 57//10 58//10
f 101//11 57//11 100//11
f 102//12 57//12 101//12
f 11//1 13//1 103//1
f 13//1 102//1 103//1
f 13//10 57//10 102//10
f 13//10 56//10 57//10
f 13//10 55//10 56//10
f 13//13 54//13 55//13
f 13//14 53//14 54//14
f 13//15 52//15 53//15
f 13//5 51//5 52//5
f 13//5 50//5 51//5
f 13//16 14//16 50//16
f 14//17 15//17 50//17
f 15//5 49//5 50//5
f 11//1 12//1 13//1
f 16//18 49//18 15//18
f 17//19 49//19 16//19
f 18//20 49//20 17//20
f 18//5 48//5 49//5
f 19//21 48//21 18//21
f 20//22 48//22 19//22
f 20//2 47//2 48//2
f 21//22 47//22 20//22
f 21//2 46//2 47//2
f 22//22 46//22 21//22
f 22//2 45//2 46//2
f 23//23 45//23 22//23
f 23//1 44//1 45//1
f 24//1 44//1 23//1
f 24//1 43//1 44//1
f 25//1 43//1 24//1
f 25//1 42//1 43//1
f 25//1 41//1 42//1
f 26//1 41//1 25//1
f 26//1 40//1 41//1
f 27//1 40//1 26//1
f 27//1 39//1 40//1
f 27//1 38//1 39//1
f 27//1 37//1 38//1
f 27//1 36//1 37//1
f 27//1 35//1 36//1
f 27//1 34//1 35//1
f 27//1 33//1 34//1
f 27//1 32//1 33//1
f 27//1 31//1 32//1
f 27//1 30//1 31//1
f 27//1 29//1 30//1
f 27//1 28//1 29//1
f 141//24 139//24 140//24
f 141//25 138//25 139//25
f 142//26 138//26 141//26
f 142//27 137//27 138//27
f 143//13 137//13 142//13
f 143//5 136//5 137//5
f 144//10 136//10 143//10
f 144//5 135//5 136//5
f 145//28 135//28 144//28
f 145//1 134//1 135//1
f 146//1 164//1 145//1
f 164//29 134//29 145//29
f 146//1 163//1 164//1
f 165//30 134//30 164//30
f 166//31 134//31 165//31
f 146//1 162//1 163//1
f 167//1 134//1 166//1
f 146//1 161//1 162//1
f 167//1 133//1 134//1
f 147//1 161//1 146//1
f 168//1 133//1 167//1
f 147//1 160//1 161//1
f 169//1 133//1 168//1
f 147//1 159//1 160//1
f 169//1 132//1 133//1
f 148//1 159//1 147//1
f 170//1 132//1 169//1
f 148//1 158//1 159//1
f 171//1 132//1 170//1
f 148//1 157//1 158//1
f 171//1 131//1 132//1
f 149//1 157//1 148//1
f 172//1 131//1 171//1
f 149//1 156//1 157//1
f 172//1 130//1 131//1
f 150//1 156//1 149//1
f 173//1 130//1 172//1
f 150//1 155//1 156//1
f 174//1 130//1 173//1
f 150//1 154//1 155//1
f 174//1 129//1 130//1
f 151//1 154//1 150//1
f 175//1 129//1 174//1
f 151//1 153//1 154//1
f 175//1 128//1 129//1
f 104//1 153//1 151//1
f 176//1 128//1 175//1
f 104//1 152//1 153//1
f 105//1 152//1 104//1
f 105//1 199//1 152//1
f 177//1 128//1 176//1
f 177//1 127//1 128//1
f 105//1 198//1 199//1
f 178//1 127//1 177//1
f 178//1 126//1 127//1
f 106//1 198//1 105//1
f 106//1 197//1 198//1
f 179//1 126//1 178//1
f 179//1 125//1 126//1
f 107//1 197//1 106//1
f 180//1 125//1 179//1
f 107//1 196//1 197//1
f 180//1 124//1 125//1
f 108//1 196//1 107//1
f 181//1 124//1 180//1
f 108//1 195//1 196//1
f 182//1 124//1 181//1
f 108//1 194//1 195//1
f 182//1 123//1 124//1
f 109//1 194//1 108//1
f 183//32 123//32 182//32
f 109//1 193//1 194//1
f 184//13 123//13 183//13
f 109//1 192//1 193//1
f 184//10 122//10 123//10
f 110//1 192//1 109//1
f 185//13 122//13 184//13
f 110//1 191//1 192//1
f 186//33 122//33 185//33
f 110//1 190//1 191//1
f 186//10 121//10 122//10
f 111//1 190//1 110//1
f 187//33 121//33 186//33
f 111//1 189//1 190//1
f 188//34 121//34 187//34
f 111//1 188//1 189//1
f 111//34 121//34 188//34
f 111//28 120//28 121//28
f 112//5 120//5 111//5
f 112//35 119//35 120//35
f 113//1 119//1 112//1
f 113//1 118//1 119//1
f 114//1 118//1 113//1
f 114//1 117//1 118//1
f 115//1 117//1 114//1
f 115//1 116//1 117//1
f 205//1 203//1 204//1
f 205//3 207//3 203//3
f 207//1 208//1 203//1
f 208//1 202//1 203//1
f 202//36 200//36 201//36
f 202//37 211//37 200//37
f 211//4 212//4 200//4
f 212//3 214//3 200//3
f 205//1 206//1 207//1
f 209//1 202//1 208//1
f 202//1 210//1 211//1
f 213//1 214//1 212//1
f 209//1 210//1 202//1
f 217//1 225//1 216//1
f 225//1 215//1 216//1
f 225//1 226//1 215//1
f 217//3 224//3 225//3
f 217//3 221//3 224//3
f 221//1 223//1 224//1
f 221//1 222//1 223//1
f 217//3 220//3 221//3
f 217//6 219//6 220//6
f 217//38 218//38 219//38
f 232//3 230//3 231//3
f 232//39 234//39 230//39
f 234//4 235//4 230//4
f 235//2 229//2 230//2
f 229//1 227//1 228//1
f 229//1 238//1 227//1
f 238//1 239//1 227//1
f 239//1 241//1 227//1
f 232//1 233//1 234//1
f 236//38 229//38 235//38
f 229//1 237//1 238//1
f 240//1 241//1 239//1
f 236//1 237//1 229//1
