# Blender v2.67 (sub 0) OBJ File: 'a.blend'
# www.blender.org
mtllib a2.mtl
o Plane
v 31.964592 61.092262 30.132380
v 31.964588 1.092260 30.132380
v 31.964611 61.092258 -29.867620
v 31.964607 1.092260 -29.867620
v 28.964592 61.092262 30.132378
v 28.964588 1.092261 30.132378
v 28.964611 61.092262 -29.867622
v 28.964607 1.092261 -29.867622
v 28.964590 31.092260 30.132378
v 28.964609 31.092260 -29.867622
v 28.964602 61.092262 0.132378
v 28.964598 1.092261 0.132378
v 28.964600 31.092260 0.132378
v 28.964590 16.092260 30.132378
v 28.964607 16.092260 -29.867622
v 28.964607 61.092262 -14.867622
v 28.964592 1.092261 15.132378
v 28.964592 46.092262 30.132378
v 28.964609 46.092262 -29.867622
v 28.964598 61.092262 15.132378
v 28.964602 1.092261 -14.867622
v 28.964603 31.092260 -14.867622
v 28.964596 31.092260 15.132378
v 30.464603 46.092262 -7.367621
v 28.964602 46.092262 0.132378
v 30.464596 46.092262 15.132379
v 28.964603 16.092260 -14.867622
v 28.964594 16.092260 15.132378
v 28.964588 8.592260 30.132378
v 28.964607 8.592260 -29.867622
v 28.964609 61.092262 -22.367622
v 28.964590 1.092261 22.632378
v 28.964592 53.592262 30.132378
v 28.964611 53.592262 -29.867622
v 28.964596 61.092262 22.632378
v 28.964603 1.092261 -22.367622
v 28.964607 31.092260 -22.367622
v 28.964592 31.092260 22.632378
v 28.964598 8.592260 0.132378
v 28.964600 38.592262 0.132378
v 28.964590 23.592260 30.132378
v 28.964607 23.592260 -29.867622
v 28.964603 61.092262 -7.367622
v 28.964596 1.092261 7.632378
v 28.964592 38.592262 30.132378
v 28.964609 38.592262 -29.867622
v 28.964600 61.092262 7.632378
v 28.964600 1.092261 -7.367622
v 28.964602 31.092260 -7.367622
v 28.964598 31.092260 7.632378
v 28.964600 23.592260 0.132378
v 28.964602 53.592262 0.132378
v 28.964607 46.092262 -22.367622
v 28.964603 46.092262 -7.367622
v 28.964605 38.592262 -14.867622
v 28.964605 53.592262 -14.867622
v 28.964605 16.092260 -22.367622
v 30.464607 46.092262 -22.367622
v 28.964602 8.592260 -14.867622
v 28.964603 23.592260 -14.867622
v 30.464605 46.092262 -14.867621
v 28.964592 16.092260 22.632378
v 28.964594 8.592260 15.132378
v 28.964594 23.592260 15.132378
v 28.964598 46.092262 7.632378
v 28.964594 46.092262 22.632378
v 28.964596 38.592262 15.132378
v 28.964596 53.592262 15.132378
v 28.964607 53.592262 -22.367622
v 28.964605 23.592260 -22.367622
v 28.964596 23.592260 7.632378
v 28.964600 53.592262 7.632378
v 28.964607 38.592262 -22.367622
v 28.964602 38.592262 -7.367622
v 28.964603 53.592262 -7.367622
v 28.964605 8.592260 -22.367622
v 28.964600 8.592260 -7.367622
v 28.964602 23.592260 -7.367622
v 28.964596 8.592260 7.632378
v 28.964592 8.592260 22.632378
v 28.964592 23.592260 22.632378
v 28.964598 38.592262 7.632378
v 28.964594 38.592262 22.632378
v 28.964594 53.592262 22.632378
v 30.464598 16.092260 0.132378
v 30.464603 16.092260 -14.867621
v 30.464594 16.092260 15.132379
v 30.464598 8.592260 0.132378
v 30.464600 23.592260 0.132378
v 30.464602 16.092260 -7.367621
v 30.464602 8.592260 -14.867621
v 30.464603 23.592260 -14.867621
v 30.464596 16.092260 7.632379
v 30.464594 8.592260 15.132379
v 30.464594 23.592260 15.132379
v 30.464598 23.592260 7.632379
v 30.464600 8.592260 -7.367621
v 30.464602 23.592260 -7.367621
v 30.464596 8.592260 7.632379
v 30.464605 38.592262 -14.867621
v 30.464605 53.592262 -14.867621
v 30.464607 53.592262 -22.367622
v 30.464607 38.592262 -22.367622
v 30.464602 38.592262 -7.367621
v 30.464603 53.592262 -7.367621
v 30.464598 46.092262 7.632379
v 30.464594 46.092262 22.632378
v 30.464596 38.592262 15.132379
v 30.464598 53.592262 15.132379
v 30.464600 53.592262 7.632379
v 30.464598 38.592262 7.632379
v 30.464594 38.592262 22.632378
v 30.464594 53.592262 22.632378
vt 0.664385 0.753601
vt 0.664385 0.684159
vt 0.733827 0.684159
vt 0.733827 0.753601
vt 0.093125 0.305862
vt 0.170764 0.305862
vt 0.170764 0.383501
vt 0.093125 0.383501
vt 0.994732 0.911926
vt 0.837025 0.911926
vt 0.836868 0.906880
vt 0.849482 0.906489
vt 0.862096 0.906098
vt 0.874709 0.905706
vt 0.887323 0.905315
vt 0.899937 0.904923
vt 0.917652 0.904469
vt 0.946426 0.904041
vt 0.994732 0.904041
vt 0.844985 0.883264
vt 0.936516 0.884625
vt 0.936563 0.887555
vt 0.929239 0.887673
vt 0.921915 0.887792
vt 0.914590 0.887910
vt 0.907266 0.888028
vt 0.899942 0.888147
vt 0.889657 0.888258
vt 0.872953 0.888258
vt 0.844917 0.887841
vt 0.838672 0.906635
vt 0.920302 0.906635
vt 0.920383 0.909246
vt 0.913854 0.909449
vt 0.907325 0.909652
vt 0.900796 0.909854
vt 0.894267 0.910057
vt 0.887739 0.910259
vt 0.878569 0.910495
vt 0.863676 0.910716
vt 0.838672 0.910716
vt 0.989917 0.905378
vt 0.836256 0.905378
vt 0.836103 0.900461
vt 0.848393 0.900080
vt 0.860683 0.899699
vt 0.872974 0.899317
vt 0.885263 0.898936
vt 0.897554 0.898555
vt 0.914814 0.898111
vt 0.942850 0.897694
vt 0.989917 0.897694
vt 0.046304 0.396923
vt 0.123943 0.396923
vt 0.123943 0.474562
vt 0.046304 0.474562
vt 0.075800 0.220938
vt 0.153439 0.220938
vt 0.153439 0.298577
vt 0.075800 0.298577
vt 0.085312 0.772449
vt 0.162951 0.772449
vt 0.162951 0.850088
vt 0.085312 0.850088
vt 0.055953 0.385493
vt 0.133592 0.385493
vt 0.133592 0.463132
vt 0.055953 0.463132
vt 0.280878 0.185464
vt 0.358517 0.185464
vt 0.358517 0.200992
vt 0.280878 0.200992
vt 0.057187 0.820830
vt 0.134826 0.820830
vt 0.134826 0.898469
vt 0.057187 0.898469
vt 0.071165 0.447574
vt 0.148804 0.447574
vt 0.148804 0.525213
vt 0.071165 0.525213
vt 0.308015 0.379303
vt 0.385654 0.379303
vt 0.385654 0.394831
vt 0.308015 0.394831
vt 0.031659 0.494749
vt 0.109298 0.494749
vt 0.109298 0.572388
vt 0.031659 0.572388
vt 0.329722 0.733369
vt 0.252083 0.733369
vt 0.252083 0.717841
vt 0.329722 0.717841
vt 0.044343 0.294726
vt 0.121982 0.294726
vt 0.121982 0.372365
vt 0.044343 0.372365
vt 0.042785 0.277358
vt 0.120424 0.277358
vt 0.120424 0.354997
vt 0.042785 0.354997
vt 0.069904 0.507215
vt 0.147543 0.507215
vt 0.147543 0.584854
vt 0.069904 0.584854
vt 0.348436 0.365205
vt 0.270797 0.365205
vt 0.270797 0.349678
vt 0.348436 0.349678
vt 0.061735 0.260759
vt 0.139374 0.260759
vt 0.139374 0.338398
vt 0.061735 0.338398
vt 0.064076 0.311710
vt 0.141715 0.311710
vt 0.141715 0.389349
vt 0.064076 0.389349
vt 0.268824 0.751759
vt 0.346463 0.751759
vt 0.346463 0.767287
vt 0.268824 0.767287
vt 0.092009 0.856422
vt 0.169648 0.856422
vt 0.169648 0.934061
vt 0.092009 0.934061
vt 0.063820 0.328722
vt 0.141459 0.328722
vt 0.141459 0.406361
vt 0.063820 0.406361
vt 0.097337 0.274374
vt 0.174976 0.274374
vt 0.174976 0.352013
vt 0.097337 0.352013
vt 0.065337 0.226786
vt 0.142976 0.226786
vt 0.142976 0.304425
vt 0.065337 0.304425
vt 0.249421 0.439280
vt 0.327060 0.439280
vt 0.327060 0.454808
vt 0.249421 0.454808
vt 0.265089 0.938605
vt 0.342728 0.938605
vt 0.342728 0.954132
vt 0.265089 0.954132
vt 0.038662 0.820836
vt 0.116301 0.820836
vt 0.116301 0.898475
vt 0.038662 0.898475
vt 0.086884 0.289286
vt 0.164523 0.289286
vt 0.164523 0.366925
vt 0.086884 0.366925
vt 0.265089 0.921645
vt 0.342728 0.921645
vt 0.342728 0.937173
vt 0.265089 0.937173
vt 0.080187 0.362389
vt 0.157826 0.362389
vt 0.157826 0.440028
vt 0.080187 0.440028
vt 0.121073 0.407764
vt 0.198712 0.407764
vt 0.198712 0.485403
vt 0.121073 0.485403
vt 0.078141 0.266041
vt 0.155780 0.266041
vt 0.155780 0.343679
vt 0.078141 0.343679
vt 0.353123 0.635426
vt 0.275484 0.635426
vt 0.275484 0.619898
vt 0.353123 0.619898
vt 0.089683 0.340390
vt 0.167322 0.340390
vt 0.167322 0.418029
vt 0.089683 0.418029
vt 0.062330 0.327861
vt 0.139969 0.327861
vt 0.139969 0.405500
vt 0.062330 0.405500
vt 0.099569 0.320836
vt 0.177208 0.320836
vt 0.177208 0.398475
vt 0.099569 0.398475
vt 0.365177 0.333446
vt 0.287538 0.333446
vt 0.287538 0.317918
vt 0.365177 0.317918
vt 0.075357 0.375184
vt 0.152996 0.375184
vt 0.152996 0.452823
vt 0.075357 0.452823
vt 0.062568 0.070836
vt 0.140207 0.070836
vt 0.140207 0.148475
vt 0.062568 0.148475
vt 0.120615 0.358221
vt 0.198254 0.358221
vt 0.198254 0.435860
vt 0.120615 0.435860
vt 0.080119 0.305862
vt 0.157758 0.305862
vt 0.157758 0.383501
vt 0.080119 0.383501
vt 0.093171 0.198672
vt 0.170810 0.198672
vt 0.170810 0.276311
vt 0.093171 0.276311
vt 0.064076 0.283591
vt 0.141715 0.283591
vt 0.141715 0.361229
vt 0.064076 0.361229
vt 0.049427 0.451531
vt 0.127066 0.451531
vt 0.127066 0.529170
vt 0.049427 0.529170
vt 0.368785 0.723154
vt 0.291146 0.723154
vt 0.291146 0.707626
vt 0.368785 0.707626
vt 0.327959 0.466138
vt 0.250320 0.466138
vt 0.250320 0.450610
vt 0.327959 0.450610
vt 0.342855 0.642574
vt 0.265217 0.642574
vt 0.265217 0.627046
vt 0.342855 0.627046
vt 0.053060 0.177607
vt 0.130699 0.177607
vt 0.130699 0.255246
vt 0.053060 0.255246
vt 0.107918 0.199346
vt 0.185557 0.199346
vt 0.185557 0.276985
vt 0.107918 0.276985
vt 0.064076 0.306422
vt 0.141715 0.306422
vt 0.141715 0.384061
vt 0.064076 0.384061
vt 0.277323 0.776697
vt 0.354962 0.776697
vt 0.354962 0.792225
vt 0.277323 0.792225
vt 0.034918 0.207232
vt 0.112557 0.207232
vt 0.112557 0.284871
vt 0.034918 0.284871
vt 0.069972 0.345672
vt 0.147611 0.345672
vt 0.147611 0.423310
vt 0.069972 0.423310
vt 0.097970 0.846917
vt 0.175609 0.846917
vt 0.175609 0.924556
vt 0.097970 0.924556
vt 0.053946 0.220026
vt 0.131585 0.220026
vt 0.131585 0.297665
vt 0.053946 0.297665
vt 0.082999 0.089592
vt 0.160637 0.089592
vt 0.160637 0.167231
vt 0.082998 0.167231
vt 0.056817 0.190401
vt 0.134456 0.190401
vt 0.134456 0.268040
vt 0.056817 0.268040
vt 0.089683 0.397183
vt 0.167322 0.397183
vt 0.167322 0.474822
vt 0.089683 0.474822
vt 0.078141 0.351520
vt 0.155780 0.351520
vt 0.155780 0.429159
vt 0.078141 0.429159
vt 0.328823 0.475217
vt 0.251184 0.475217
vt 0.251184 0.459689
vt 0.328823 0.459689
vt 0.040855 0.238482
vt 0.118494 0.238482
vt 0.118494 0.316121
vt 0.040855 0.316121
vt 0.081628 0.339823
vt 0.159267 0.339823
vt 0.159267 0.417462
vt 0.081628 0.417462
vt 0.101294 0.272455
vt 0.178932 0.272455
vt 0.178932 0.350094
vt 0.101294 0.350094
vt 0.347409 0.679021
vt 0.269770 0.679021
vt 0.269770 0.663493
vt 0.347409 0.663493
vt 0.075686 0.187536
vt 0.153325 0.187536
vt 0.153325 0.265175
vt 0.075686 0.265175
vt 0.058248 0.147721
vt 0.135886 0.147721
vt 0.135887 0.225360
vt 0.058248 0.225360
vt 0.643900 0.456422
vt 0.721538 0.456422
vt 0.721538 0.534061
vt 0.643900 0.534061
vt 0.621251 0.890589
vt 0.621251 0.812950
vt 0.698890 0.812950
vt 0.698890 0.890589
vt 0.671304 0.640589
vt 0.671304 0.562950
vt 0.748943 0.562950
vt 0.748943 0.640589
vt 0.683185 0.478971
vt 0.760824 0.478971
vt 0.760824 0.556610
vt 0.683185 0.556610
vt 0.678946 0.890589
vt 0.678946 0.812950
vt 0.756585 0.812950
vt 0.756585 0.890589
vt 0.657025 0.074878
vt 0.734664 0.074878
vt 0.734664 0.152517
vt 0.657025 0.152517
vt 0.684049 0.792763
vt 0.684049 0.715124
vt 0.761688 0.715124
vt 0.761688 0.792763
vt 0.709652 0.064008
vt 0.787290 0.064008
vt 0.787290 0.141647
vt 0.709652 0.141647
vt 0.344700 0.539702
vt 0.267061 0.539702
vt 0.267061 0.524174
vt 0.344700 0.524174
vt 0.386553 0.286135
vt 0.308914 0.286135
vt 0.308914 0.270607
vt 0.386553 0.270607
vt 0.257745 0.211674
vt 0.335384 0.211674
vt 0.335384 0.227202
vt 0.257745 0.227202
vt 0.268906 0.273980
vt 0.346545 0.273980
vt 0.346545 0.289507
vt 0.268906 0.289507
vt 0.638403 0.124889
vt 0.716042 0.124889
vt 0.716042 0.202528
vt 0.638403 0.202528
vt 0.717531 0.786796
vt 0.717531 0.709157
vt 0.795170 0.709157
vt 0.795170 0.786796
vt 0.732211 0.645491
vt 0.732211 0.567852
vt 0.809850 0.567852
vt 0.809850 0.645491
vt 0.683307 0.582908
vt 0.760946 0.582908
vt 0.760946 0.660547
vt 0.683307 0.660547
vt 0.260536 0.493628
vt 0.338175 0.493628
vt 0.338175 0.509156
vt 0.260536 0.509156
vt 0.330749 0.386873
vt 0.253110 0.386873
vt 0.253110 0.371345
vt 0.330749 0.371345
vt 0.332640 0.648397
vt 0.255001 0.648397
vt 0.255001 0.632870
vt 0.332640 0.632870
vt 0.254124 0.667801
vt 0.331763 0.667801
vt 0.331763 0.683329
vt 0.254124 0.683329
vt 0.682664 0.096204
vt 0.760303 0.096204
vt 0.760303 0.173843
vt 0.682664 0.173843
vt 0.648037 0.089592
vt 0.725676 0.089592
vt 0.725676 0.167231
vt 0.648037 0.167231
vt 0.639168 0.088731
vt 0.716807 0.088731
vt 0.716807 0.166370
vt 0.639168 0.166370
vt 0.675768 0.774374
vt 0.753407 0.774374
vt 0.753407 0.852013
vt 0.675768 0.852013
vt 0.306988 0.530996
vt 0.384626 0.530996
vt 0.384626 0.546524
vt 0.306988 0.546524
vt 0.255819 0.666865
vt 0.333458 0.666865
vt 0.333458 0.682393
vt 0.255819 0.682393
vt 0.247598 0.613453
vt 0.325237 0.613453
vt 0.325237 0.628981
vt 0.247598 0.628981
vt 0.343755 0.313309
vt 0.266116 0.313309
vt 0.266116 0.297781
vt 0.343755 0.297781
vn 1.000000 -0.000000 0.000000
vn -1.000000 0.000000 -0.000000
vn -0.000000 -1.000000 -0.000000
vn 0.000001 1.000000 -0.000000
vn -0.000001 0.000000 1.000000
vn 0.000001 -0.000000 -1.000000
vn 0.000000 -0.000000 -1.000000
vn 0.000000 1.000000 0.000000
vn -0.000000 0.000000 1.000000
g Plane_Plane_a
usemtl a
s off
f 2/1/1 4/2/1 3/3/1 1/4/1
f 69/5/2 31/6/2 7/7/2 34/8/2
f 4/9/3 2/10/3 6/11/3 32/12/3 17/13/3 44/14/3 12/15/3 48/16/3 21/17/3 36/18/3 8/19/3
f 1/20/4 3/21/4 7/22/4 31/23/4 16/24/4 43/25/4 11/26/4 47/27/4 20/28/4 35/29/4 5/30/4
f 2/31/5 1/32/5 5/33/5 33/34/5 18/35/5 45/36/5 9/37/5 41/38/5 14/39/5 29/40/5 6/41/5
f 3/42/6 4/43/6 8/44/6 30/45/6 15/46/6 42/47/6 10/48/6 46/49/6 19/50/6 34/51/6 7/52/6
f 70/53/2 37/54/2 10/55/2 42/56/2
f 71/57/2 50/58/2 13/59/2 51/60/2
f 72/61/2 47/62/2 11/63/2 52/64/2
f 73/65/2 53/66/2 19/67/2 46/68/2
f 74/69/7 54/70/7 24/71/7 104/72/7
f 75/73/2 43/74/2 16/75/2 56/76/2
f 76/77/2 57/78/2 15/79/2 30/80/2
f 64/81/3 71/82/3 96/83/3 95/84/3
f 78/85/2 49/86/2 22/87/2 60/88/2
f 39/89/8 79/90/8 99/91/8 88/92/8
f 80/93/2 62/94/2 28/95/2 63/96/2
f 81/97/2 38/98/2 23/99/2 64/100/2
f 82/101/2 65/102/2 25/103/2 40/104/2
f 65/105/9 82/106/9 111/107/9 106/108/9
f 84/109/2 35/110/2 20/111/2 68/112/2
f 53/113/2 69/114/2 34/115/2 19/116/2
f 54/117/7 75/118/7 105/119/7 24/120/7
f 56/121/2 16/122/2 31/123/2 69/124/2
f 57/125/2 70/126/2 42/127/2 15/128/2
f 27/129/2 60/130/2 70/131/2 57/132/2
f 60/133/2 22/134/2 37/135/2 70/136/2
f 71/137/3 51/138/3 89/139/3 96/140/3
f 28/141/6 64/142/6 95/143/6 87/144/6
f 64/145/2 23/146/2 50/147/2 71/148/2
f 65/149/2 72/150/2 52/151/2 25/152/2
f 84/153/3 68/154/3 109/155/3 113/156/3
f 68/157/2 20/158/2 47/159/2 72/160/2
f 37/161/2 73/162/2 46/163/2 10/164/2
f 22/165/2 55/166/2 73/167/2 37/168/2
f 53/169/9 73/170/9 103/171/9 58/172/9
f 49/173/2 74/174/2 55/175/2 22/176/2
f 13/177/2 40/178/2 74/179/2 49/180/2
f 40/181/2 25/182/2 54/183/2 74/184/2
f 69/185/9 53/186/9 58/187/9 102/188/9
f 25/189/2 52/190/2 75/191/2 54/192/2
f 52/193/2 11/194/2 43/195/2 75/196/2
f 36/197/2 76/198/2 30/199/2 8/200/2
f 21/201/2 59/202/2 76/203/2 36/204/2
f 59/205/2 27/206/2 57/207/2 76/208/2
f 48/209/2 77/210/2 59/211/2 21/212/2
f 12/213/2 39/214/2 77/215/2 48/216/2
f 77/217/8 39/218/8 88/219/8 97/220/8
f 27/221/5 59/222/5 91/223/5 86/224/5
f 59/225/8 77/226/8 97/227/8 91/228/8
f 51/229/2 13/230/2 49/231/2 78/232/2
f 44/233/2 79/234/2 39/235/2 12/236/2
f 17/237/2 63/238/2 79/239/2 44/240/2
f 51/241/3 78/242/3 98/243/3 89/244/3
f 32/245/2 80/246/2 63/247/2 17/248/2
f 6/249/2 29/250/2 80/251/2 32/252/2
f 29/253/2 14/254/2 62/255/2 80/256/2
f 62/257/2 81/258/2 64/259/2 28/260/2
f 14/261/2 41/262/2 81/263/2 62/264/2
f 41/265/2 9/266/2 38/267/2 81/268/2
f 50/269/2 82/270/2 40/271/2 13/272/2
f 23/273/2 67/274/2 82/275/2 50/276/2
f 72/277/9 65/278/9 106/279/9 110/280/9
f 38/281/2 83/282/2 67/283/2 23/284/2
f 9/285/2 45/286/2 83/287/2 38/288/2
f 45/289/2 18/290/2 66/291/2 83/292/2
f 82/293/8 67/294/8 108/295/8 111/296/8
f 18/297/2 33/298/2 84/299/2 66/300/2
f 33/301/2 5/302/2 35/303/2 84/304/2
f 97/305/2 90/306/2 86/307/2 91/308/2
f 99/309/2 93/310/2 85/311/2 88/312/2
f 93/313/2 96/314/2 89/315/2 85/316/2
f 87/317/2 95/318/2 96/319/2 93/320/2
f 88/321/2 85/322/2 90/323/2 97/324/2
f 90/325/2 98/326/2 92/327/2 86/328/2
f 85/329/2 89/330/2 98/331/2 90/332/2
f 94/333/2 87/334/2 93/335/2 99/336/2
f 60/337/5 27/338/5 86/339/5 92/340/5
f 79/341/8 63/342/8 94/343/8 99/344/8
f 78/345/3 60/346/3 92/347/3 98/348/3
f 63/349/6 28/350/6 87/351/6 94/352/6
f 104/353/2 24/354/2 61/355/2 100/356/2
f 61/357/2 101/358/2 102/359/2 58/360/2
f 100/361/2 61/362/2 58/363/2 103/364/2
f 24/365/2 105/366/2 101/367/2 61/368/2
f 56/369/3 69/370/3 102/371/3 101/372/3
f 55/373/8 74/374/8 104/375/8 100/376/8
f 73/377/8 55/378/8 100/379/8 103/380/8
f 75/381/3 56/382/3 101/383/3 105/384/3
f 112/385/2 107/386/2 26/387/2 108/388/2
f 26/389/2 109/390/2 110/391/2 106/392/2
f 108/393/2 26/394/2 106/395/2 111/396/2
f 107/397/2 113/398/2 109/399/2 26/400/2
f 66/401/7 84/402/7 113/403/7 107/404/7
f 68/405/3 72/406/3 110/407/3 109/408/3
f 83/409/7 66/410/7 107/411/7 112/412/7
f 67/413/8 83/414/8 112/415/8 108/416/8
