# Blender v2.67 (sub 0) OBJ File: ''
# www.blender.org
mtllib o_dr.mtl
o Cube
v 6.084425 0.246763 -6.084425
v 6.084425 0.246763 -0.084425
v 0.084425 0.246763 -0.084426
v 0.084426 0.246763 -6.084426
v 6.084426 6.246763 -6.084424
v 6.084423 6.246763 -0.084423
v 0.084424 6.246763 -0.084426
v 0.084425 6.246763 -6.084425
v 6.084425 0.408996 -5.922192
v 6.084425 0.408996 -0.246658
v 0.216891 0.379230 -0.216892
v 0.216893 0.379230 -5.951959
v 6.084426 6.084530 -5.922190
v 6.084423 6.084530 -0.246656
v 0.216891 6.114296 -0.216893
v 0.216892 6.114296 -5.951958
vt 0.510997 0.510997
vt 0.255899 0.510997
vt 0.255899 0.255899
vt 0.553684 0.658142
vt 0.298587 0.658142
vt 0.298587 0.403045
vt 0.510997 0.000267
vt 0.510997 0.255365
vt 0.255899 0.000267
vt 0.407160 0.905517
vt 0.407160 0.650420
vt 0.662257 0.905517
vt 0.553684 0.658677
vt 0.553684 0.913774
vt 0.298587 0.913774
vt 0.725817 0.783142
vt 0.725817 0.539309
vt 0.975286 0.781877
vt 0.735486 0.505365
vt 0.734221 0.255896
vt 0.976788 0.505365
vt 0.978054 0.755368
vt 0.734221 0.755368
vt 0.976788 0.505899
vt 0.978054 0.672566
vt 0.978054 0.916399
vt 0.734221 0.916399
vt 0.728585 0.630365
vt 0.728585 0.386531
vt 0.978054 0.629099
vt 0.145460 0.658292
vt 0.234879 0.658292
vt 0.232461 0.660710
vt 0.255365 0.762797
vt 0.000269 0.762797
vt 0.007166 0.755900
vt 0.092034 0.913773
vt 0.092034 0.658677
vt 0.098931 0.665575
vt 0.170360 0.180824
vt 0.170360 0.435920
vt 0.163463 0.429023
vt 0.510997 0.255899
vt 0.553684 0.403045
vt 0.255899 0.255365
vt 0.662257 0.650420
vt 0.298587 0.658677
vt 0.975286 0.540575
vt 0.978054 0.255896
vt 0.735486 0.505899
vt 0.734221 0.672566
vt 0.978054 0.387797
vt 0.147877 0.660710
vt 0.248467 0.755899
vt 0.098931 0.906876
vt 0.163462 0.187722
vn 0.000000 -1.000000 0.000000
vn -0.000000 1.000000 0.000000
vn -0.000000 -0.000000 1.000000
vn -1.000000 -0.000000 -0.000000
vn 0.000000 0.000000 -1.000000
vn -0.005073 0.999987 -0.000000
vn -0.005073 -0.999987 -0.000000
vn -0.005073 -0.000000 -0.999987
vn 1.000000 0.000000 0.000000
vn -0.005073 -0.000000 0.999987
vn 1.000000 -0.000001 0.000001
vn -0.005072 0.000000 -0.999987
vn 1.000000 0.000001 0.000001
g Cube_Cube_Material
usemtl Material
s off
f 1/1/1 2/2/1 3/3/1
f 5/4/2 8/5/2 7/6/2
f 2/7/3 6/8/3 3/9/3
f 3/10/4 7/11/4 4/12/4
f 5/13/5 1/14/5 4/15/5
f 12/16/6 11/17/6 9/18/6
f 14/19/7 15/20/7 13/21/7
f 11/22/8 15/23/8 10/24/8
f 12/25/9 16/26/9 15/27/9
f 16/28/10 12/29/10 13/30/10
f 2/31/9 1/32/9 9/33/9
f 5/34/11 6/35/11 14/36/11
f 6/37/9 2/38/9 10/39/9
f 1/40/9 5/41/9 13/42/9
f 4/43/1 1/1/1 3/3/1
f 6/44/2 5/4/2 7/6/2
f 6/8/3 7/45/3 3/9/3
f 7/11/4 8/46/4 4/12/4
f 8/47/5 5/13/5 4/15/5
f 11/17/6 10/48/6 9/18/6
f 15/20/7 16/49/7 13/21/7
f 15/23/12 14/50/12 10/24/12
f 11/51/9 12/25/9 15/27/9
f 12/29/10 9/52/10 13/30/10
f 10/53/9 2/31/9 9/33/9
f 13/54/13 5/34/13 14/36/13
f 14/55/9 6/37/9 10/39/9
f 9/56/9 1/40/9 13/42/9
